<svg viewBox="0 0 401 429" fill="none" xmlns="http://www.w3.org/2000/svg">
<path fill-rule="evenodd" clip-rule="evenodd" d="M61.7206 1.04903C45.4485 34.5528 53.1215 66.5411 58.9921 78.3472C57.8714 79.8514 56.6035 81.4438 55.2381 83.1585C44.9385 96.0928 29.0943 115.99 29.0943 157.582C29.0942 194.945 33.6915 289.306 161.69 300.196C156.43 305.175 145.423 319.93 143.474 339.122C137.876 343.035 83.082 365.887 56.5976 312.015C55.8855 311.098 55.1703 310.141 54.4345 309.156L54.4337 309.155C47.5629 299.959 38.8903 288.351 14.0356 285.171C10.6376 284.597 3.20635 284.686 0.665131 289.632C2.68465 295.848 7.40074 300.694 11.9872 302.904C33.4449 311.47 47.1193 352.123 46.8207 351.526C50.2193 360.086 71.0451 391.809 142.095 379.881L142.444 407.258C142.793 434.636 287.806 436.51 287.806 407.258C288.987 365.453 289.952 316.139 267.669 300.326C390.336 289.894 400.665 201.611 400.665 159.266C400.665 124.914 386.093 89.9924 370.64 78.3067C387.675 43.7235 374.931 16.5238 368.288 2.34468L368.279 2.32529C368.068 1.87601 367.864 1.43982 367.667 1.01691C368.803 -0.154655 341.287 -5.87121 288.21 31.0721C228.149 13.1908 165.775 23.6215 142.095 31.0721C119.714 11.2048 71.0531 -3.63279 61.7206 1.04903Z" fill="#5CE09A" fill-opacity="0.56"/>
</svg>
