<svg viewBox="0 0 40 39" xmlns="http://www.w3.org/2000/svg">
<path d="M19.7536 3.51347C24.958 3.51347 25.5753 3.53297 27.6317 3.62718C32.9141 3.86758 35.3815 6.37396 35.6219 11.6174C35.7161 13.6722 35.734 14.2894 35.734 19.4939C35.734 24.6999 35.7145 25.3155 35.6219 27.3703C35.3798 32.6089 32.919 35.1201 27.6317 35.3605C25.5753 35.4547 24.9613 35.4742 19.7536 35.4742C14.5492 35.4742 13.9319 35.4547 11.8771 35.3605C6.58171 35.1185 4.12731 32.6008 3.88691 27.3687C3.79269 25.3139 3.7732 24.6983 3.7732 19.4922C3.7732 14.2878 3.79432 13.6722 3.88691 11.6157C4.12894 6.37396 6.58983 3.86596 11.8771 3.62555C13.9335 3.53297 14.5492 3.51347 19.7536 3.51347ZM19.7536 0C14.4598 0 13.7971 0.0227409 11.7179 0.116953C4.63898 0.441824 0.704801 4.36951 0.37993 11.4549C0.284093 13.5357 0.261353 14.1985 0.261353 19.4922C0.261353 24.786 0.284093 25.4504 0.378306 27.5295C0.703176 34.6084 4.63086 38.5426 11.7163 38.8675C13.7971 38.9617 14.4598 38.9845 19.7536 38.9845C25.0473 38.9845 25.7117 38.9617 27.7909 38.8675C34.8633 38.5426 38.8072 34.6149 39.1272 27.5295C39.2231 25.4504 39.2458 24.786 39.2458 19.4922C39.2458 14.1985 39.2231 13.5357 39.1289 11.4566C38.8105 4.38413 34.8779 0.443448 27.7925 0.118578C25.7117 0.0227409 25.0473 0 19.7536 0ZM19.7536 9.48297C14.2259 9.48297 9.74432 13.9646 9.74432 19.4922C9.74432 25.0199 14.2259 29.5031 19.7536 29.5031C25.2812 29.5031 29.7628 25.0215 29.7628 19.4922C29.7628 13.9646 25.2812 9.48297 19.7536 9.48297ZM19.7536 25.9896C16.1654 25.9896 13.2562 23.082 13.2562 19.4922C13.2562 15.904 16.1654 12.9948 19.7536 12.9948C23.3418 12.9948 26.251 15.904 26.251 19.4922C26.251 23.082 23.3418 25.9896 19.7536 25.9896ZM30.1592 6.74918C28.8662 6.74918 27.8185 7.79689 27.8185 9.08825C27.8185 10.3796 28.8662 11.4273 30.1592 11.4273C31.4505 11.4273 32.4966 10.3796 32.4966 9.08825C32.4966 7.79689 31.4505 6.74918 30.1592 6.74918Z" fill-opacity="0.56"/>
</svg>
