<svg viewBox="0 0 39 33" fill="none" xmlns="http://www.w3.org/2000/svg">
<path d="M38.9845 4.20595C37.5502 4.8427 36.0086 5.27153 34.3908 5.46482C36.0428 4.47559 37.3114 2.90809 37.9075 1.04009C36.3628 1.95622 34.6507 2.62221 32.8282 2.98119C31.3711 1.42668 29.2903 0.455322 26.9902 0.455322C21.8264 0.455322 18.0319 5.27315 19.1982 10.2745C12.553 9.94154 6.65984 6.75781 2.71429 1.91886C0.618878 5.51356 1.6276 10.2161 5.18818 12.5974C3.87895 12.5551 2.64445 12.1961 1.5675 11.5968C1.47978 15.3019 4.1356 18.7683 7.98207 19.5398C6.85639 19.8452 5.62351 19.9167 4.36951 19.6763C5.38635 22.8535 8.33943 25.165 11.8415 25.2299C8.47912 27.8663 4.24281 29.0439 0 28.5436C3.53946 30.8128 7.74491 32.1367 12.2606 32.1367C27.1104 32.1367 35.5002 19.5951 34.9934 8.34643C36.556 7.2175 37.9124 5.80919 38.9845 4.20595Z" fill="#5CE09A" fill-opacity="0.56"/>
</svg>
